#!OML:ASF F:\VICON\USERDATA\INSTALL\rory3\rory3.ASF
:FULLY-SPECIFIED
:DEGREES
84
root 0.561718 17.3919 8.369 0.804132 5.54917 3.8916
lowerback 17.8307 -0.895866 -6.06041
upperback 3.08834 -2.51219 -2.81766
thorax -6.52886 -1.11114 0.993314
lowerneck -7.01334 -1.16156 -2.25363
upperneck -9.50283 -1.14042 4.85736
head -1.76203 -0.564449 1.91841
rclavicle -3.97569e-015 -9.54166e-015
rhumerus -48.9225 4.92138 -84.4298
rradius 78.5394
rwrist 1.78178
rhand -44.959 37.3791
rfingers 7.12502
rthumb -17.7442 8.16874
lclavicle -3.97569e-015 -9.54166e-015
lhumerus -21.0858 -15.8949 84.949
lradius 107.331
lwrist 29.1347
lhand -35.9344 7.07928
lfingers 7.12502
lthumb -9.04648 36.8653
rfemur -16.9969 -12.924 14.6438
rtibia 109.336
rfoot 23.5533 -6.59016
rtoes 28.0522
lfemur -13.7762 -3.79781 -28.311
ltibia 39.5435
lfoot -16.6206 -1.12837
ltoes -17.2072
85
root 0.554927 17.347 8.82163 1.23256 5.92434 3.37339
lowerback 17.818 -1.18194 -5.59799
upperback 3.13899 -2.77816 -2.57908
thorax -6.46188 -1.25016 1.04754
lowerneck -7.29688 -1.1462 -2.34128
upperneck -9.85009 -1.10142 4.84559
head -1.82865 -0.541449 1.9326
rclavicle 1.37161e-014 2.54444e-014
rhumerus -49.4574 3.90345 -83.8348
rradius 77.8477
rwrist 1.96178
rhand -45.0273 37.1611
rfingers 7.12502
rthumb -17.81 7.95667
lclavicle 1.37161e-014 2.54444e-014
lhumerus -17.908 -16.3731 84.524
lradius 107.969
lwrist 29.0126
lhand -37.9308 10.2232
lfingers 7.12502
lthumb -10.9725 39.9164
rfemur -21.0791 -13.6522 15.5978
rtibia 111.243
rfoot 22.4281 -6.73711
rtoes 28.7217
lfemur -12.6705 -3.58045 -27.56
ltibia 39.7857
lfoot -17.3459 -1.41498
ltoes -20.2508
86
root 0.567685 17.3456 9.31272 1.39833 6.12363 3.0575
lowerback 17.8368 -1.48304 -5.03933
upperback 3.09565 -3.06971 -2.53936
thorax -6.53084 -1.40058 0.843002
lowerneck -7.17603 -0.958257 -2.37714
upperneck -9.9313 -0.841887 4.92785
head -1.88607 -0.414111 1.97065
rclavicle -4.77083e-015 1.59028e-014
rhumerus -50.3862 3.14317 -83.5459
rradius 77.2882
rwrist 1.87482
rhand -45.2731 37.4371
rfingers 7.12502
rthumb -18.0464 8.2543
lclavicle -4.77083e-015 1.59028e-014
lhumerus -15.4827 -16.5627 84.1591
lradius 108.643
lwrist 28.7732
lhand -38.4071 11.8216
lfingers 7.12502
lthumb -11.4319 41.49
rfemur -24.4455 -13.7649 16.3763
rtibia 112.218
rfoot 20.52 -6.86296
rtoes 24.802
lfemur -10.939 -3.11102 -27.0846
ltibia 39.7355
lfoot -17.8906 -1.6456
ltoes -22.8337
87
root 0.587612 17.3764 9.83721 1.49881 5.98034 3.33837
lowerback 17.7208 -1.65812 -5.03868
upperback 2.94555 -3.31246 -2.69338
thorax -6.62854 -1.51586 0.731266
lowerneck -6.75984 -0.703801 -2.41932
upperneck -9.92914 -0.498696 5.02361
head -1.97065 -0.248156 2.01568
rclavicle -3.26007e-014 -9.54166e-015
rhumerus -51.6461 2.60856 -83.3919
rradius 76.9666
rwrist 1.5119
rhand -45.6554 37.9368
rfingers 7.12502
rthumb -18.4142 8.78838
lclavicle -3.26007e-014 -9.54166e-015
lhumerus -13.588 -16.5113 83.9558
lradius 109.117
lwrist 28.2276
lhand -37.2115 12.4841
lfingers 7.12502
lthumb -10.2786 42.2129
rfemur -27.2778 -13.3014 16.3915
rtibia 112.494
rfoot 17.7365 -7.25084
rtoes 18.3196
lfemur -8.53664 -2.47857 -27.2875
ltibia 39.2454
lfoot -18.2547 -1.98662
ltoes -24.7455
88
root 0.610581 17.4092 10.3779 1.8124 5.61213 3.54269
lowerback 17.0694 -1.82778 -5.05686
upperback 2.7355 -3.50861 -2.71508
thorax -6.49254 -1.61394 0.740815
lowerneck -6.01496 -0.491508 -2.57696
upperneck -10.0865 -0.219608 4.93589
head -2.16267 -0.11286 2.02362
rclavicle -2.88238e-014 -1.59028e-014
rhumerus -52.9649 2.46975 -83.1933
rradius 77.0932
rwrist 0.638485
rhand -45.8197 37.6101
rfingers 7.12502
rthumb -18.5723 8.47666
lclavicle -2.88238e-014 -1.59028e-014
lhumerus -12.1845 -16.2509 83.965
lradius 109.669
lwrist 27.0465
lhand -37.5512 8.43565
lfingers 7.12502
lthumb -10.6063 38.148
rfemur -30.1685 -12.5143 16.5447
rtibia 112.303
rfoot 16.3089 -7.26074
rtoes 17.3895
lfemur -6.32617 -1.84854 -27.4137
ltibia 38.2785
lfoot -18.0033 -2.2794
ltoes -27.0483
89
root 0.606821 17.4461 10.8864 1.99558 5.83796 3.63687
lowerback 17.1678 -2.17178 -5.14657
upperback 2.44364 -3.9969 -2.64522
thorax -6.82754 -1.83501 0.982295
lowerneck -5.49683 -0.356671 -2.34516
upperneck -10.0725 -0.0913848 4.44136
head -2.24967 -0.0544384 1.82241
rclavicle -6.75868e-014 -7.95139e-015
rhumerus -54.2349 2.54814 -83.1723
rradius 77.3819
rwrist -0.170396
rhand -45.647 36.8939
rfingers 7.12502
rthumb -18.4061 7.74475
lclavicle -6.75868e-014 -7.95139e-015
lhumerus -11.6596 -15.8157 84.0362
lradius 110.589
lwrist 25.673
lhand -37.2647 7.17917
lfingers 7.12502
lthumb -10.33 36.9055
rfemur -32.9479 -12.2918 16.9154
rtibia 111.717
rfoot 15.8392 -7.43103
rtoes 20.4106
lfemur -4.2357 -1.84082 -27.266
ltibia 36.8422
lfoot -16.5917 -2.90934
ltoes -28.2939
